# xmcd CD database file generated by Grip 3.1.3
# 
# Track frame offsets:
#       182
#       11585
#       23487
#       33347
#       47282
#       54787
#       71057
#       82162
#       93652
#       102792
#       113745
#       122712
#       137355
#       145217
#       164942
#       176287
#       184542
#       196780
#       206852
#       218560
#       228815
#       245095
#       251857
#       262267
#       271597
# 
# Disc length: 3865 seconds
# 
# Revision: 3
# Processed by: cddbd v1.4PL0 Copyright (c) Steve Scherf et al.
# Submitted via: Grip 3.1.3
# 
DISCID=5a0f1719
DTITLE=Various Artistsésés - 25 Golden Classics CD2
DYEAR=1900
DGENRE=Classical
TTITLE0=Tchaikovsky - March from the Nutcracker Suite
TTITLE1=Mendelssohn - The Italian Symphony 3rd Movement
TTITLE2=Mozart - Eine Kleine Nachtmusik "Minuetto Allegretto"
TTITLE3=Bach - Air On A G String
TTITLE4=Brahms - Waltz In A Flat
TTITLE5=Vivaldi - "Spring" From The Four Seasons
TTITLE6=J. Strauss Jr. - Overture: Die Fledermaus
TTITLE7=Beethoven - The "Pastoral" Symphony 2nd Movement
TTITLE8=Schubert - Symphony No. 5 1st Movement
TTITLE9=Suppe - Overture: Light Cavalry
TTITLE10=Debussy - La Fille Aux Cheveux de Lin
TTITLE11=Rossini - Overture: Italian Girl In Algiers
TTITLE12=Tchaikovsky - Dance of the Sugar Plum Fairy - from The Nutcracker
TTITLE13=Mozart - Overture: The Marriage of Figaro
TTITLE14=Chopin - Etude No. 12 (Revolutionary)
TTITLE15=Saint Saens - Carnival of the Animals - Finale
TTITLE16=Glinka - Overture: Russian And Ludmilla
TTITLE17=Haydn - "Surprise" Symphony no. 94 2nd Movement
TTITLE18=Mozart - Clarinet Concerto
TTITLE19=Strauss - Radetzky March
TTITLE20=Mozart - Piano Concerto No. 21
TTITLE21=Bach - Badinerie
TTITLE22=Brahms - Hungarian Dance No. 5
TTITLE23=Grieg - Peer Gynt Suite No. 1 - Anitra's Dance
TTITLE24=Mozart - Eine Kleine Nachtmusik: Finale
EXTD=[Catégorie: Classique]\n[Enregistrement: ]
EXTT0=Tchaikovsky
EXTT1=Mendelssohn
EXTT2=Mozart
EXTT3=Bach
EXTT4=Brahms
EXTT5=Vivaldi
EXTT6=J. Strauss Jr.
EXTT7=Beethoven
EXTT8=Schubert
EXTT9=Suppe
EXTT10=Debussy
EXTT11=Rossini
EXTT12=Tchaikovsky
EXTT13=Mozart
EXTT14=Chopin
EXTT15=Saint Saens
EXTT16=Glinka
EXTT17=Haydn
EXTT18=Mozart
EXTT19=Strauss
EXTT20=Mozart
EXTT21=Bach
EXTT22=Brahms
EXTT23=Grieg
EXTT24=Mozart
PLAYORDER=
